<svg id="SvgjsSvg1001" width="288" height="288" xmlns="http://www.w3.org/2000/svg" version="1.1" xmlnsXlink="http://www.w3.org/1999/xlink" xmlnsSvgjs="http://svgjs.com/svgjs"><defs id="SvgjsDefs1002"></defs><g id="SvgjsG1008"><svg xmlns="http://www.w3.org/2000/svg" viewBox="0 0 24 24" width="288" height="288"><path d="M14 10h-.5v4h.5a.5.5 0 00.5-.5v-3a.5.5 0 00-.5-.5zM18 11a.5.5 0 00-.5.5v2a.5.5 0 001 0v-2a.5.5 0 00-.5-.5z" fill="#f6c600" class="color000 svgShape"></path><path d="M21 7H3A2.503 2.503 0 0 0 .5 9.5v5C.5 15.878 1.622 17 3 17h18c1.378 0 2.5-1.122 2.5-2.5v-5C23.5 8.122 22.378 7 21 7zM5.5 14.5a.5.5 0 0 1-1 0v-5a.5.5 0 0 1 1 0v5zm6 0a.5.5 0 0 1-1 0V10h-.09l-.92 4.598a.5.5 0 0 1-.98 0L7.59 10H7.5v4.5a.5.5 0 0 1-1 0v-5A.5.5 0 0 1 7 9h1a.5.5 0 0 1 .49.402L9 11.951l.51-2.549A.5.5 0 0 1 10 9h1a.5.5 0 0 1 .5.5v5zm4-1c0 .827-.673 1.5-1.5 1.5h-1a.5.5 0 0 1-.5-.5v-5A.5.5 0 0 1 13 9h1c.827 0 1.5.673 1.5 1.5v3zm4 0c0 .827-.673 1.5-1.5 1.5-.231 0-.448-.057-.643-.151a.498.498 0 0 1-.857-.349v-5a.5.5 0 0 1 1 0v.592c.157-.056.324-.092.5-.092.827 0 1.5.673 1.5 1.5v2z" fill="#f6c600" class="color000 svgShape"></path></svg></g></svg>